{
    "asset" : {
        "generator" : "Khronos glTF Blender I/O v1.1.46",
        "version" : "2.0"
    },
    "scene" : 0,
    "scenes" : [
        {
            "name" : "Scene",
            "nodes" : [
                0,
                1,
                2,
                3,
                4,
                5,
                6,
                7,
                8,
                9,
                10,
                11,
                12,
                13
            ]
        }
    ],
    "nodes" : [
        {
            "mesh" : 0,
            "name" : "Cube",
            "translation" : [
                0,
                0.17217044532299042,
                0
            ]
        },
        {
            "name" : "Light",
            "rotation" : [
                0.16907575726509094,
                0.7558803558349609,
                -0.27217137813568115,
                0.570947527885437
            ],
            "translation" : [
                4.485726833343506,
                3.1402766704559326,
                1.0909830331802368
            ]
        },
        {
            "name" : "Camera",
            "rotation" : [
                0.483536034822464,
                0.33687159419059753,
                -0.20870360732078552,
                0.7804827094078064
            ],
            "translation" : [
                7.358891487121582,
                4.958309173583984,
                6.925790786743164
            ]
        },
        {
            "mesh" : 1,
            "name" : "Cube.001",
            "translation" : [
                0,
                2.7186291217803955,
                0
            ]
        },
        {
            "name" : "Empty",
            "rotation" : [
                0.5,
                0.5,
                -0.5,
                0.4999999701976776
            ],
            "translation" : [
                0,
                0,
                0.750957727432251
            ]
        },
        {
            "name" : "Empty.001",
            "rotation" : [
                0,
                0.7071067690849304,
                -0.7071067690849304,
                -1.152023116901546e-07
            ],
            "translation" : [
                0.750957727432251,
                0,
                0
            ]
        },
        {
            "name" : "malik_front",
            "rotation" : [
                0.5,
                0.4999999701976776,
                -0.5000000596046448,
                0.4999999403953552
            ],
            "scale" : [
                1.2654659748077393,
                1.2654659748077393,
                1.0454659461975098
            ],
            "translation" : [
                0,
                1.0550241470336914,
                -1.1440812349319458
            ]
        },
        {
            "name" : "malik_side",
            "rotation" : [
                0,
                0.7071067094802856,
                -0.7071068286895752,
                -3.0908616110991716e-08
            ],
            "scale" : [
                1.6333825588226318,
                1.7433825731277466,
                1.5833826065063477
            ],
            "translation" : [
                0.07321056723594666,
                1.1526286602020264,
                0
            ]
        },
        {
            "mesh" : 2,
            "name" : "Sphere",
            "rotation" : [
                0,
                0,
                -0.7071067690849304,
                0.7071068286895752
            ],
            "scale" : [
                0.4423637390136719,
                0.4423637390136719,
                0.4423637390136719
            ],
            "translation" : [
                0.09333262592554092,
                2.51031756401062,
                0
            ]
        },
        {
            "mesh" : 3,
            "name" : "Plane",
            "scale" : [
                1.3713603019714355,
                1.3713603019714355,
                1.3713603019714355
            ],
            "translation" : [
                0.008889876306056976,
                1.3306289911270142,
                -0.017972156405448914
            ]
        },
        {
            "mesh" : 4,
            "name" : "Cube.002",
            "translation" : [
                0,
                0.17217044532299042,
                0
            ]
        },
        {
            "mesh" : 5,
            "name" : "Plane.001",
            "rotation" : [
                0.2863594591617584,
                0.6501696705818176,
                -0.28366756439208984,
                0.6440577507019043
            ],
            "scale" : [
                0.2878077030181885,
                0.2878077030181885,
                0.2878077030181885
            ],
            "translation" : [
                1.1491446495056152,
                1.2482883930206299,
                -0.005377703346312046
            ]
        },
        {
            "mesh" : 6,
            "name" : "Plane.002",
            "rotation" : [
                0.43548646569252014,
                0.5613144040107727,
                -0.11900626122951508,
                0.6936246752738953
            ],
            "scale" : [
                0.2878077030181885,
                0.2878077030181885,
                0.2878077030181885
            ],
            "translation" : [
                1.1491446495056152,
                1.2482883930206299,
                -0.005377703346312046
            ]
        },
        {
            "mesh" : 7,
            "name" : "Plane.003",
            "rotation" : [
                0.15077665448188782,
                0.6942541003227234,
                -0.4065519869327545,
                0.5744502544403076
            ],
            "scale" : [
                0.2878077030181885,
                0.2878077030181885,
                0.2878077030181885
            ],
            "translation" : [
                1.1491446495056152,
                1.2482883930206299,
                -0.005377703346312046
            ]
        }
    ],
    "materials" : [
        {
            "doubleSided" : true,
            "emissiveFactor" : [
                0,
                0,
                0
            ],
            "name" : "Material",
            "pbrMetallicRoughness" : {
                "baseColorTexture" : {
                    "index" : 0,
                    "texCoord" : 0
                },
                "metallicFactor" : 0,
                "roughnessFactor" : 0.7000000476837158
            }
        },
        {
            "doubleSided" : true,
            "emissiveFactor" : [
                0,
                0,
                0
            ],
            "name" : "Eye",
            "pbrMetallicRoughness" : {
                "baseColorTexture" : {
                    "index" : 1,
                    "texCoord" : 0
                },
                "metallicFactor" : 0,
                "roughnessFactor" : 0.5
            }
        },
        {
            "alphaMode" : "BLEND",
            "doubleSided" : true,
            "emissiveFactor" : [
                0,
                0,
                0
            ],
            "name" : "Material.001",
            "pbrMetallicRoughness" : {
                "baseColorTexture" : {
                    "index" : 2,
                    "texCoord" : 0
                },
                "metallicFactor" : 0,
                "roughnessFactor" : 0.5
            }
        },
        {
            "doubleSided" : true,
            "emissiveFactor" : [
                0,
                0,
                0
            ],
            "name" : "Shorts",
            "pbrMetallicRoughness" : {
                "baseColorFactor" : [
                    0.018848657608032227,
                    0.018848657608032227,
                    0.018848657608032227,
                    1
                ],
                "metallicFactor" : 0,
                "roughnessFactor" : 0.5
            }
        },
        {
            "alphaMode" : "BLEND",
            "doubleSided" : true,
            "emissiveFactor" : [
                0,
                0,
                0
            ],
            "name" : "goatee",
            "pbrMetallicRoughness" : {
                "baseColorTexture" : {
                    "index" : 3,
                    "texCoord" : 0
                },
                "metallicFactor" : 0,
                "roughnessFactor" : 0.5
            }
        }
    ],
    "meshes" : [
        {
            "name" : "Cube",
            "primitives" : [
                {
                    "attributes" : {
                        "POSITION" : 0,
                        "NORMAL" : 1,
                        "TEXCOORD_0" : 2
                    },
                    "indices" : 3,
                    "material" : 0
                }
            ]
        },
        {
            "name" : "Cube.001",
            "primitives" : [
                {
                    "attributes" : {
                        "POSITION" : 4,
                        "NORMAL" : 5,
                        "TEXCOORD_0" : 6
                    },
                    "indices" : 7,
                    "material" : 0
                }
            ]
        },
        {
            "name" : "Sphere",
            "primitives" : [
                {
                    "attributes" : {
                        "POSITION" : 8,
                        "NORMAL" : 9,
                        "TEXCOORD_0" : 10
                    },
                    "indices" : 11,
                    "material" : 1
                }
            ]
        },
        {
            "name" : "Plane",
            "primitives" : [
                {
                    "attributes" : {
                        "POSITION" : 12,
                        "NORMAL" : 13,
                        "TEXCOORD_0" : 14
                    },
                    "indices" : 15,
                    "material" : 2
                }
            ]
        },
        {
            "name" : "Cube.002",
            "primitives" : [
                {
                    "attributes" : {
                        "POSITION" : 16,
                        "NORMAL" : 17,
                        "TEXCOORD_0" : 18
                    },
                    "indices" : 19,
                    "material" : 3
                }
            ]
        },
        {
            "name" : "Plane.001",
            "primitives" : [
                {
                    "attributes" : {
                        "POSITION" : 20,
                        "NORMAL" : 21,
                        "TEXCOORD_0" : 22
                    },
                    "indices" : 23,
                    "material" : 4
                }
            ]
        },
        {
            "name" : "Plane.002",
            "primitives" : [
                {
                    "attributes" : {
                        "POSITION" : 24,
                        "NORMAL" : 25,
                        "TEXCOORD_0" : 26
                    },
                    "indices" : 23,
                    "material" : 4
                }
            ]
        },
        {
            "name" : "Plane.003",
            "primitives" : [
                {
                    "attributes" : {
                        "POSITION" : 27,
                        "NORMAL" : 28,
                        "TEXCOORD_0" : 29
                    },
                    "indices" : 23,
                    "material" : 4
                }
            ]
        }
    ],
    "textures" : [
        {
            "source" : 0
        },
        {
            "source" : 1
        },
        {
            "source" : 2
        },
        {
            "source" : 3
        }
    ],
    "images" : [
        {
            "bufferView" : 4,
            "mimeType" : "image/png",
            "name" : "face"
        },
        {
            "bufferView" : 13,
            "mimeType" : "image/png",
            "name" : "eye"
        },
        {
            "bufferView" : 18,
            "mimeType" : "image/png",
            "name" : "chain"
        },
        {
            "bufferView" : 27,
            "mimeType" : "image/png",
            "name" : "goatee"
        }
    ],
    "accessors" : [
        {
            "bufferView" : 0,
            "componentType" : 5126,
            "count" : 355,
            "max" : [
                1.1229873895645142,
                1.1738896369934082,
                3.2522408962249756
            ],
            "min" : [
                -0.6753900051116943,
                -5.917245388031006,
                -3.2522408962249756
            ],
            "type" : "VEC3"
        },
        {
            "bufferView" : 1,
            "componentType" : 5126,
            "count" : 355,
            "type" : "VEC3"
        },
        {
            "bufferView" : 2,
            "componentType" : 5126,
            "count" : 355,
            "type" : "VEC2"
        },
        {
            "bufferView" : 3,
            "componentType" : 5123,
            "count" : 1512,
            "type" : "SCALAR"
        },
        {
            "bufferView" : 5,
            "componentType" : 5126,
            "count" : 512,
            "max" : [
                1.2141368389129639,
                1.001000165939331,
                0.9191877245903015
            ],
            "min" : [
                -1.1979204416275024,
                -1.5251480340957642,
                -0.9191877245903015
            ],
            "type" : "VEC3"
        },
        {
            "bufferView" : 6,
            "componentType" : 5126,
            "count" : 512,
            "type" : "VEC3"
        },
        {
            "bufferView" : 7,
            "componentType" : 5126,
            "count" : 512,
            "type" : "VEC2"
        },
        {
            "bufferView" : 8,
            "componentType" : 5123,
            "count" : 2652,
            "type" : "SCALAR"
        },
        {
            "bufferView" : 9,
            "componentType" : 5126,
            "count" : 52,
            "max" : [
                0.7283803820610046,
                1.9707551002502441,
                1.4892414808273315
            ],
            "min" : [
                -0.6907870769500732,
                0.621622622013092,
                -0.07605214416980743
            ],
            "type" : "VEC3"
        },
        {
            "bufferView" : 10,
            "componentType" : 5126,
            "count" : 52,
            "type" : "VEC3"
        },
        {
            "bufferView" : 11,
            "componentType" : 5126,
            "count" : 52,
            "type" : "VEC2"
        },
        {
            "bufferView" : 12,
            "componentType" : 5123,
            "count" : 240,
            "type" : "SCALAR"
        },
        {
            "bufferView" : 14,
            "componentType" : 5126,
            "count" : 12,
            "max" : [
                0.5358692407608032,
                0.09588775038719177,
                0.3697474002838135
            ],
            "min" : [
                -0.4542231857776642,
                -0.44765082001686096,
                -0.379013329744339
            ],
            "type" : "VEC3"
        },
        {
            "bufferView" : 15,
            "componentType" : 5126,
            "count" : 12,
            "type" : "VEC3"
        },
        {
            "bufferView" : 16,
            "componentType" : 5126,
            "count" : 12,
            "type" : "VEC2"
        },
        {
            "bufferView" : 17,
            "componentType" : 5123,
            "count" : 30,
            "type" : "SCALAR"
        },
        {
            "bufferView" : 19,
            "componentType" : 5126,
            "count" : 100,
            "max" : [
                0.7175947427749634,
                -0.8605625033378601,
                1.0831984281539917
            ],
            "min" : [
                -0.6206903457641602,
                -3.310791015625,
                -1.0831984281539917
            ],
            "type" : "VEC3"
        },
        {
            "bufferView" : 20,
            "componentType" : 5126,
            "count" : 100,
            "type" : "VEC3"
        },
        {
            "bufferView" : 21,
            "componentType" : 5126,
            "count" : 100,
            "type" : "VEC2"
        },
        {
            "bufferView" : 22,
            "componentType" : 5123,
            "count" : 336,
            "type" : "SCALAR"
        },
        {
            "bufferView" : 23,
            "componentType" : 5126,
            "count" : 4,
            "max" : [
                1,
                0,
                1
            ],
            "min" : [
                -1,
                0,
                -1
            ],
            "type" : "VEC3"
        },
        {
            "bufferView" : 24,
            "componentType" : 5126,
            "count" : 4,
            "type" : "VEC3"
        },
        {
            "bufferView" : 25,
            "componentType" : 5126,
            "count" : 4,
            "type" : "VEC2"
        },
        {
            "bufferView" : 26,
            "componentType" : 5123,
            "count" : 6,
            "type" : "SCALAR"
        },
        {
            "bufferView" : 28,
            "componentType" : 5126,
            "count" : 4,
            "max" : [
                1,
                0,
                1
            ],
            "min" : [
                -1,
                0,
                -1
            ],
            "type" : "VEC3"
        },
        {
            "bufferView" : 29,
            "componentType" : 5126,
            "count" : 4,
            "type" : "VEC3"
        },
        {
            "bufferView" : 30,
            "componentType" : 5126,
            "count" : 4,
            "type" : "VEC2"
        },
        {
            "bufferView" : 31,
            "componentType" : 5126,
            "count" : 4,
            "max" : [
                1,
                0,
                1
            ],
            "min" : [
                -1,
                0,
                -1
            ],
            "type" : "VEC3"
        },
        {
            "bufferView" : 32,
            "componentType" : 5126,
            "count" : 4,
            "type" : "VEC3"
        },
        {
            "bufferView" : 33,
            "componentType" : 5126,
            "count" : 4,
            "type" : "VEC2"
        }
    ],
    "bufferViews" : [
        {
            "buffer" : 0,
            "byteLength" : 4260,
            "byteOffset" : 0
        },
        {
            "buffer" : 0,
            "byteLength" : 4260,
            "byteOffset" : 4260
        },
        {
            "buffer" : 0,
            "byteLength" : 2840,
            "byteOffset" : 8520
        },
        {
            "buffer" : 0,
            "byteLength" : 3024,
            "byteOffset" : 11360
        },
        {
            "buffer" : 0,
            "byteLength" : 38628,
            "byteOffset" : 14384
        },
        {
            "buffer" : 0,
            "byteLength" : 6144,
            "byteOffset" : 53012
        },
        {
            "buffer" : 0,
            "byteLength" : 6144,
            "byteOffset" : 59156
        },
        {
            "buffer" : 0,
            "byteLength" : 4096,
            "byteOffset" : 65300
        },
        {
            "buffer" : 0,
            "byteLength" : 5304,
            "byteOffset" : 69396
        },
        {
            "buffer" : 0,
            "byteLength" : 624,
            "byteOffset" : 74700
        },
        {
            "buffer" : 0,
            "byteLength" : 624,
            "byteOffset" : 75324
        },
        {
            "buffer" : 0,
            "byteLength" : 416,
            "byteOffset" : 75948
        },
        {
            "buffer" : 0,
            "byteLength" : 480,
            "byteOffset" : 76364
        },
        {
            "buffer" : 0,
            "byteLength" : 29483,
            "byteOffset" : 76844
        },
        {
            "buffer" : 0,
            "byteLength" : 144,
            "byteOffset" : 106328
        },
        {
            "buffer" : 0,
            "byteLength" : 144,
            "byteOffset" : 106472
        },
        {
            "buffer" : 0,
            "byteLength" : 96,
            "byteOffset" : 106616
        },
        {
            "buffer" : 0,
            "byteLength" : 60,
            "byteOffset" : 106712
        },
        {
            "buffer" : 0,
            "byteLength" : 73241,
            "byteOffset" : 106772
        },
        {
            "buffer" : 0,
            "byteLength" : 1200,
            "byteOffset" : 180016
        },
        {
            "buffer" : 0,
            "byteLength" : 1200,
            "byteOffset" : 181216
        },
        {
            "buffer" : 0,
            "byteLength" : 800,
            "byteOffset" : 182416
        },
        {
            "buffer" : 0,
            "byteLength" : 672,
            "byteOffset" : 183216
        },
        {
            "buffer" : 0,
            "byteLength" : 48,
            "byteOffset" : 183888
        },
        {
            "buffer" : 0,
            "byteLength" : 48,
            "byteOffset" : 183936
        },
        {
            "buffer" : 0,
            "byteLength" : 32,
            "byteOffset" : 183984
        },
        {
            "buffer" : 0,
            "byteLength" : 12,
            "byteOffset" : 184016
        },
        {
            "buffer" : 0,
            "byteLength" : 19776,
            "byteOffset" : 184028
        },
        {
            "buffer" : 0,
            "byteLength" : 48,
            "byteOffset" : 203804
        },
        {
            "buffer" : 0,
            "byteLength" : 48,
            "byteOffset" : 203852
        },
        {
            "buffer" : 0,
            "byteLength" : 32,
            "byteOffset" : 203900
        },
        {
            "buffer" : 0,
            "byteLength" : 48,
            "byteOffset" : 203932
        },
        {
            "buffer" : 0,
            "byteLength" : 48,
            "byteOffset" : 203980
        },
        {
            "buffer" : 0,
            "byteLength" : 32,
            "byteOffset" : 204028
        }
    ],
    "buffers" : [
        {
            "byteLength" : 204060,
            "uri" : "data:application/octet-stream;base64,"
        }
    ]
}
