{
	"asset":{
		"generator":"Khronos glTF Blender I/O v3.5.30",
		"version":"2.0"
	},
	"scene":0,
	"scenes":[
		{
			"name":"Scene",
			"nodes":[
				0
			]
		}
	],
	"nodes":[
		{
			"mesh":0,
			"name":"malik",
			"translation":[
				0,
				0.17217044532299042,
				0
			]
		}
	],
	"materials":[
		{
			"doubleSided":true,
			"name":"Shorts",
			"pbrMetallicRoughness":{
				"baseColorFactor":[
					0.018848657608032227,
					0.018848657608032227,
					0.018848657608032227,
					1
				],
				"metallicFactor":0,
				"roughnessFactor":0.5
			}
		},
		{
			"doubleSided":true,
			"name":"Material",
			"pbrMetallicRoughness":{
				"baseColorTexture":{
					"index":0
				},
				"metallicFactor":0,
				"roughnessFactor":0.7000000476837158
			}
		},
		{
			"alphaMode":"BLEND",
			"doubleSided":true,
			"name":"Material.001",
			"pbrMetallicRoughness":{
				"baseColorTexture":{
					"index":1
				},
				"metallicFactor":0,
				"roughnessFactor":0.5
			}
		}
	],
	"meshes":[
		{
			"name":"Cube.002",
			"primitives":[
				{
					"attributes":{
						"POSITION":0,
						"TEXCOORD_0":1,
						"NORMAL":2
					},
					"indices":3,
					"material":0
				},
				{
					"attributes":{
						"POSITION":4,
						"TEXCOORD_0":5,
						"NORMAL":6
					},
					"indices":7,
					"material":1
				},
				{
					"attributes":{
						"POSITION":8,
						"TEXCOORD_0":9,
						"NORMAL":10
					},
					"indices":11,
					"material":2
				}
			]
		}
	],
	"textures":[
		{
			"sampler":0,
			"source":0
		},
		{
			"sampler":0,
			"source":1
		}
	],
	"images":[
		{
			"bufferView":8,
			"mimeType":"image/png",
			"name":"face"
		},
		{
			"bufferView":13,
			"mimeType":"image/png",
			"name":"chain"
		}
	],
	"accessors":[
		{
			"bufferView":0,
			"componentType":5126,
			"count":78,
			"max":[
				0.7175947427749634,
				-0.8605625033378601,
				1.0831984281539917
			],
			"min":[
				-0.6206903457641602,
				-3.310791015625,
				-1.0831984281539917
			],
			"type":"VEC3"
		},
		{
			"bufferView":1,
			"componentType":5126,
			"count":78,
			"type":"VEC2"
		},
		{
			"bufferView":2,
			"componentType":5126,
			"count":78,
			"type":"VEC3"
		},
		{
			"bufferView":3,
			"componentType":5123,
			"count":336,
			"type":"SCALAR"
		},
		{
			"bufferView":4,
			"componentType":5126,
			"count":788,
			"max":[
				1.2141368389129639,
				3.5474588871002197,
				3.2522408962249756
			],
			"min":[
				-1.1979204416275024,
				-5.917245388031006,
				-3.2522408962249756
			],
			"type":"VEC3"
		},
		{
			"bufferView":5,
			"componentType":5126,
			"count":788,
			"type":"VEC2"
		},
		{
			"bufferView":6,
			"componentType":5126,
			"count":788,
			"type":"VEC3"
		},
		{
			"bufferView":7,
			"componentType":5123,
			"count":4164,
			"type":"SCALAR"
		},
		{
			"bufferView":9,
			"componentType":5126,
			"count":12,
			"max":[
				0.7437596321105957,
				1.2899552583694458,
				0.48908472061157227
			],
			"min":[
				-0.6140137910842896,
				0.5445680022239685,
				-0.5377359986305237
			],
			"type":"VEC3"
		},
		{
			"bufferView":10,
			"componentType":5126,
			"count":12,
			"type":"VEC2"
		},
		{
			"bufferView":11,
			"componentType":5126,
			"count":12,
			"type":"VEC3"
		},
		{
			"bufferView":12,
			"componentType":5123,
			"count":30,
			"type":"SCALAR"
		}
	],
	"bufferViews":[
		{
			"buffer":0,
			"byteLength":936,
			"byteOffset":0,
			"target":34962
		},
		{
			"buffer":0,
			"byteLength":624,
			"byteOffset":936,
			"target":34962
		},
		{
			"buffer":0,
			"byteLength":936,
			"byteOffset":1560,
			"target":34962
		},
		{
			"buffer":0,
			"byteLength":672,
			"byteOffset":2496,
			"target":34963
		},
		{
			"buffer":0,
			"byteLength":9456,
			"byteOffset":3168,
			"target":34962
		},
		{
			"buffer":0,
			"byteLength":6304,
			"byteOffset":12624,
			"target":34962
		},
		{
			"buffer":0,
			"byteLength":9456,
			"byteOffset":18928,
			"target":34962
		},
		{
			"buffer":0,
			"byteLength":8328,
			"byteOffset":28384,
			"target":34963
		},
		{
			"buffer":0,
			"byteLength":38628,
			"byteOffset":36712
		},
		{
			"buffer":0,
			"byteLength":144,
			"byteOffset":75340,
			"target":34962
		},
		{
			"buffer":0,
			"byteLength":96,
			"byteOffset":75484,
			"target":34962
		},
		{
			"buffer":0,
			"byteLength":144,
			"byteOffset":75580,
			"target":34962
		},
		{
			"buffer":0,
			"byteLength":60,
			"byteOffset":75724,
			"target":34963
		},
		{
			"buffer":0,
			"byteLength":73241,
			"byteOffset":75784
		}
	],
	"samplers":[
		{
			"magFilter":9729,
			"minFilter":9987
		}
	],
	"buffers":[
		{
			"byteLength":149028,
			"uri":"data:application/octet-stream;base64,"
		}
	]
}
